<mxfile host="app.diagrams.net" modified="2023-06-01T13:37:13.963Z" agent="Mozilla/5.0 (Windows NT 10.0; Win64; x64) AppleWebKit/537.36 (KHTML, like Gecko) Chrome/113.0.0.0 Safari/537.36 Edg/113.0.1774.57" etag="vCI_r2O61ASL6Os5DcNs" version="21.3.6" type="github">
  <diagram id="C5RBs43oDa-KdzZeNtuy" name="Page-1">
    <mxGraphModel dx="996" dy="573" grid="1" gridSize="10" guides="1" tooltips="1" connect="1" arrows="1" fold="1" page="1" pageScale="1" pageWidth="827" pageHeight="1169" math="0" shadow="0">
      <root>
        <mxCell id="WIyWlLk6GJQsqaUBKTNV-0" />
        <mxCell id="WIyWlLk6GJQsqaUBKTNV-1" parent="WIyWlLk6GJQsqaUBKTNV-0" />
        <mxCell id="M8e1836bFp9v21bbPEOf-15" style="edgeStyle=orthogonalEdgeStyle;rounded=0;orthogonalLoop=1;jettySize=auto;html=1;entryX=0;entryY=0.5;entryDx=0;entryDy=0;" edge="1" parent="WIyWlLk6GJQsqaUBKTNV-1" source="M8e1836bFp9v21bbPEOf-0" target="M8e1836bFp9v21bbPEOf-2">
          <mxGeometry relative="1" as="geometry" />
        </mxCell>
        <mxCell id="M8e1836bFp9v21bbPEOf-16" style="edgeStyle=orthogonalEdgeStyle;rounded=0;orthogonalLoop=1;jettySize=auto;html=1;entryX=0;entryY=0.5;entryDx=0;entryDy=0;" edge="1" parent="WIyWlLk6GJQsqaUBKTNV-1" source="M8e1836bFp9v21bbPEOf-0" target="M8e1836bFp9v21bbPEOf-6">
          <mxGeometry relative="1" as="geometry" />
        </mxCell>
        <mxCell id="M8e1836bFp9v21bbPEOf-17" style="edgeStyle=orthogonalEdgeStyle;rounded=0;orthogonalLoop=1;jettySize=auto;html=1;entryX=0;entryY=0.5;entryDx=0;entryDy=0;" edge="1" parent="WIyWlLk6GJQsqaUBKTNV-1" source="M8e1836bFp9v21bbPEOf-0" target="M8e1836bFp9v21bbPEOf-18">
          <mxGeometry relative="1" as="geometry">
            <mxPoint x="300" y="540" as="targetPoint" />
          </mxGeometry>
        </mxCell>
        <mxCell id="M8e1836bFp9v21bbPEOf-19" style="edgeStyle=orthogonalEdgeStyle;rounded=0;orthogonalLoop=1;jettySize=auto;html=1;exitX=1;exitY=0.3333333333333333;exitDx=0;exitDy=0;exitPerimeter=0;entryX=0;entryY=0.5;entryDx=0;entryDy=0;" edge="1" parent="WIyWlLk6GJQsqaUBKTNV-1" source="M8e1836bFp9v21bbPEOf-0" target="M8e1836bFp9v21bbPEOf-20">
          <mxGeometry relative="1" as="geometry">
            <mxPoint x="300" y="50" as="targetPoint" />
          </mxGeometry>
        </mxCell>
        <mxCell id="M8e1836bFp9v21bbPEOf-21" style="edgeStyle=orthogonalEdgeStyle;rounded=0;orthogonalLoop=1;jettySize=auto;html=1;" edge="1" parent="WIyWlLk6GJQsqaUBKTNV-1" source="M8e1836bFp9v21bbPEOf-0" target="M8e1836bFp9v21bbPEOf-22">
          <mxGeometry relative="1" as="geometry">
            <mxPoint x="420" y="140" as="targetPoint" />
            <Array as="points">
              <mxPoint x="390" y="220" />
              <mxPoint x="390" y="140" />
            </Array>
          </mxGeometry>
        </mxCell>
        <mxCell id="M8e1836bFp9v21bbPEOf-0" value="用户" style="shape=umlActor;verticalLabelPosition=bottom;verticalAlign=top;html=1;outlineConnect=0;" vertex="1" parent="WIyWlLk6GJQsqaUBKTNV-1">
          <mxGeometry x="100" y="190" width="60" height="60" as="geometry" />
        </mxCell>
        <mxCell id="M8e1836bFp9v21bbPEOf-2" value="" style="ellipse;whiteSpace=wrap;html=1;" vertex="1" parent="WIyWlLk6GJQsqaUBKTNV-1">
          <mxGeometry x="414" y="200" width="110" height="70" as="geometry" />
        </mxCell>
        <mxCell id="M8e1836bFp9v21bbPEOf-3" value="注册登录" style="text;html=1;strokeColor=none;fillColor=none;align=center;verticalAlign=middle;whiteSpace=wrap;rounded=0;" vertex="1" parent="WIyWlLk6GJQsqaUBKTNV-1">
          <mxGeometry x="415" y="220" width="90" height="30" as="geometry" />
        </mxCell>
        <mxCell id="M8e1836bFp9v21bbPEOf-6" value="" style="ellipse;whiteSpace=wrap;html=1;" vertex="1" parent="WIyWlLk6GJQsqaUBKTNV-1">
          <mxGeometry x="405" y="320" width="110" height="70" as="geometry" />
        </mxCell>
        <mxCell id="M8e1836bFp9v21bbPEOf-8" value="创建队伍" style="text;html=1;strokeColor=none;fillColor=none;align=center;verticalAlign=middle;whiteSpace=wrap;rounded=0;" vertex="1" parent="WIyWlLk6GJQsqaUBKTNV-1">
          <mxGeometry x="427.5" y="340" width="60" height="30" as="geometry" />
        </mxCell>
        <mxCell id="M8e1836bFp9v21bbPEOf-9" style="edgeStyle=orthogonalEdgeStyle;rounded=0;orthogonalLoop=1;jettySize=auto;html=1;exitX=0.5;exitY=1;exitDx=0;exitDy=0;" edge="1" parent="WIyWlLk6GJQsqaUBKTNV-1" source="M8e1836bFp9v21bbPEOf-8" target="M8e1836bFp9v21bbPEOf-8">
          <mxGeometry relative="1" as="geometry" />
        </mxCell>
        <mxCell id="M8e1836bFp9v21bbPEOf-18" value="加入队伍，解散队伍" style="ellipse;whiteSpace=wrap;html=1;" vertex="1" parent="WIyWlLk6GJQsqaUBKTNV-1">
          <mxGeometry x="395" y="470" width="120" height="80" as="geometry" />
        </mxCell>
        <mxCell id="M8e1836bFp9v21bbPEOf-20" value="按照标签匹配队员" style="ellipse;whiteSpace=wrap;html=1;" vertex="1" parent="WIyWlLk6GJQsqaUBKTNV-1">
          <mxGeometry x="427.5" y="10" width="120" height="80" as="geometry" />
        </mxCell>
        <mxCell id="M8e1836bFp9v21bbPEOf-22" value="标签管理，修改个人标签" style="ellipse;whiteSpace=wrap;html=1;" vertex="1" parent="WIyWlLk6GJQsqaUBKTNV-1">
          <mxGeometry x="430" y="100" width="115" height="80" as="geometry" />
        </mxCell>
        <mxCell id="M8e1836bFp9v21bbPEOf-24" style="edgeStyle=orthogonalEdgeStyle;rounded=0;orthogonalLoop=1;jettySize=auto;html=1;exitX=0.5;exitY=1;exitDx=0;exitDy=0;" edge="1" parent="WIyWlLk6GJQsqaUBKTNV-1" source="M8e1836bFp9v21bbPEOf-3" target="M8e1836bFp9v21bbPEOf-3">
          <mxGeometry relative="1" as="geometry" />
        </mxCell>
        <mxCell id="M8e1836bFp9v21bbPEOf-27" value="" style="edgeStyle=orthogonalEdgeStyle;rounded=0;orthogonalLoop=1;jettySize=auto;html=1;" edge="1" parent="WIyWlLk6GJQsqaUBKTNV-1" source="M8e1836bFp9v21bbPEOf-25" target="M8e1836bFp9v21bbPEOf-26">
          <mxGeometry relative="1" as="geometry" />
        </mxCell>
        <mxCell id="M8e1836bFp9v21bbPEOf-31" style="edgeStyle=orthogonalEdgeStyle;rounded=0;orthogonalLoop=1;jettySize=auto;html=1;" edge="1" parent="WIyWlLk6GJQsqaUBKTNV-1" source="M8e1836bFp9v21bbPEOf-25" target="M8e1836bFp9v21bbPEOf-32">
          <mxGeometry relative="1" as="geometry">
            <mxPoint x="700" y="420" as="targetPoint" />
            <Array as="points">
              <mxPoint x="650" y="420" />
            </Array>
          </mxGeometry>
        </mxCell>
        <mxCell id="M8e1836bFp9v21bbPEOf-25" value="系统员" style="shape=umlActor;verticalLabelPosition=bottom;verticalAlign=top;html=1;outlineConnect=0;" vertex="1" parent="WIyWlLk6GJQsqaUBKTNV-1">
          <mxGeometry x="630" y="240" width="30" height="60" as="geometry" />
        </mxCell>
        <mxCell id="M8e1836bFp9v21bbPEOf-26" value="用户管理" style="ellipse;whiteSpace=wrap;html=1;verticalAlign=top;" vertex="1" parent="WIyWlLk6GJQsqaUBKTNV-1">
          <mxGeometry x="715" y="230" width="80" height="80" as="geometry" />
        </mxCell>
        <mxCell id="M8e1836bFp9v21bbPEOf-32" value="队伍管理" style="ellipse;whiteSpace=wrap;html=1;" vertex="1" parent="WIyWlLk6GJQsqaUBKTNV-1">
          <mxGeometry x="707" y="380" width="120" height="80" as="geometry" />
        </mxCell>
      </root>
    </mxGraphModel>
  </diagram>
</mxfile>
